<?xml version="1.0" encoding="UTF-8"?>
<svg xmlns="http://www.w3.org/2000/svg" viewBox="0 0 115.84 112.68">
  <defs>
    <style>.cls-1{fill:#fff;}</style>
  </defs>
  <g id="Calque_2" data-name="Calque 2">
    <g id="Calque_1-2" data-name="Calque 1">
      <path class="cls-1" d="M44.34,30.49c4-4.2,7.29-7.74,10.68-11.19q7.36-7.48,14.84-14.85C76.28-1.91,83-1.42,88.61,5.74a5.86,5.86,0,0,0,1,.79c.68-.49,1.39-1,2-1.49C95.93,1.47,100.09,1,104.43,3.5a10.39,10.39,0,0,1,5.15,11.84c-.64,2.68,0,3.87,2.1,5.47,5.38,4.17,5.5,11,.59,16.85-1.41,1.68-3,3.2-4.76,5a.12.12,0,0,0,0,.16c.94.85,2,1.75,3,2.72,4.65,4.52,5,10.78.46,15.35-13.45,13.59-26.6,27.52-40.68,40.43-12.11,11.1-26.9,14.13-42.61,8.68C12.52,104.78,3.26,93.92.53,78c-1.71-10,.84-19.32,5.9-28,5.65-9.72,11.17-19.52,16.83-29.23,3.5-6,8.47-8.09,14.06-6.12s7.85,6.62,6.79,13.68A18.91,18.91,0,0,0,44.34,30.49ZM43.84,106c7.67-.18,16.64-3.57,24-11Q86.1,76.68,104.41,58.42c.7-.7,1.86-1.4,2-2.19A6.21,6.21,0,0,0,105,51.35c-1-1-2.68-2.28-4.67-1.25a13.86,13.86,0,0,0-2.76,2.44C93.2,56.86,89,61.34,84.35,65.43a4.44,4.44,0,0,1-5,.44c-2-1.37-.85-3.31.57-4.79l1.85-1.86,23.32-23.33c1.06-1.06,2.15-2.1,3.1-3.25,1.65-2,1.83-4.18,0-6.11s-4.24-1.89-6.45-.43a16.72,16.72,0,0,0-2.47,2.3Q87,40.72,74.64,53c-1.74,1.73-3.71,4.34-6.26,1.87-2.79-2.7.14-4.62,1.82-6.52.41-.47.88-.89,1.32-1.33L99.61,19c.88-.89,1.79-1.75,2.58-2.72,1.61-2,2.09-4.54,0-6-1.48-1-4-.9-6-.62-1.13.17-2.12,1.64-3.09,2.6Q78.34,26.92,63.64,41.63A9.45,9.45,0,0,1,60.81,44c-1,.37-2.85.39-3.34-.22A4.73,4.73,0,0,1,57,40.15c.25-1,1.33-1.76,2.12-2.55q11-11.18,22.13-22.32c2.24-2.25,2.93-4.69.81-7.3-1.76-2.17-4.48-1.87-7.21.63-1.29,1.18-2.5,2.46-3.73,3.69l-39,39A12.55,12.55,0,0,1,29.07,54c-1,.46-2.72.63-3.38.07a5.25,5.25,0,0,1-1.22-3.53c0-.88.75-1.81,1.25-2.67Q31.51,37.75,37.33,27.7c1.41-2.42,1.21-4.76-1.09-6.28s-4.78-1.19-6.6,1.23a21.24,21.24,0,0,0-1.43,2.2C22.45,34.94,16.66,45,11,55.14A33.21,33.21,0,0,0,6.47,73.48C7.55,91.9,22.7,105.91,43.84,106Z"></path>
      <path class="cls-1" d="M42.63,59.25h0c4-.19,8-.36,12-.59,4.72-.28,8.35,1.59,10.49,5.77s2,8.68-1,12.34A156.9,156.9,0,0,1,52.28,89.23c-2.93,2.81-5.58,2.18-8.23-1-3.14-3.71-6.62-7.14-9.84-10.79s-4-8-1.79-12.52C34.45,60.8,37.81,58.51,42.63,59.25ZM60,70.71a.06.06,0,0,0,0,0c.06-4.36-3.14-6.81-6.62-5.24a10.28,10.28,0,0,1-8.88.15c-1.52-.62-4.77.33-5.66,1.64s-.61,4.47.41,6c2,3.08,5,5.58,7.45,8.37,1.47,1.65,2.79,1.82,4.33.09,2.57-2.9,5.28-5.67,7.81-8.59A7.93,7.93,0,0,0,60,70.71Z"></path>
    </g>
  </g>
</svg>
