<?xml version="1.0" encoding="UTF-8"?>
<svg xmlns="http://www.w3.org/2000/svg" viewBox="0 0 122.76 62.88">
  <defs>
    <style>.cls-1{fill:#fff;}</style>
  </defs>
  <g id="Calque_2" data-name="Calque 2">
    <g id="Calque_1-2" data-name="Calque 1">
      <path class="cls-1" d="M55,52.89c-.68-2.65-1.46-5.29-2-8a38.35,38.35,0,0,1-.09-17.25c1.87-7.6,6.48-13.17,13-17.29,6.24-4,13.17-6.14,20.33-7.63C98.08.3,110.1-.16,122.16,0c.15,0,.3,0,.6.09a6.39,6.39,0,0,1-.55.67c-6.33,5.47-10.52,12.37-13.49,20.11-2.83,7.35-5.57,14.74-9.75,21.48a50.93,50.93,0,0,1-10,12.32c-7.73,6.56-16.31,7.58-25.3,2.92-3.54-1.84-3-1-1.85-4.47A78.79,78.79,0,0,1,72.62,30.93,39.61,39.61,0,0,1,86.69,18.49a3.09,3.09,0,0,0,.37-.26l-.14-.35c-1.94.76-4,1.37-5.79,2.31-5.58,2.86-9.73,7.35-13.49,12.23A114.28,114.28,0,0,0,56.71,50.31c-.43.85-.85,1.71-1.28,2.56Z"></path>
      <path class="cls-1" d="M0,38.86c.9-.41,1.78-.84,2.69-1.22C10,34.52,17.4,31.79,25.32,30.7a32.19,32.19,0,0,1,11.33.21c7.34,1.6,11.74,6.35,13.89,13.32.8,2.57,1.21,5.26,1.79,7.89l-.42.21-1.24-1c-4.76-3.88-9.67-7.51-15.44-9.78a18.23,18.23,0,0,0-9-1.47,1.93,1.93,0,0,0-1.12.46l1.56.22c6.21.89,11.35,3.95,15.94,8,2.24,2,4.27,4.21,6.34,6.37a1.39,1.39,0,0,1,.27,1.27c-3.05,4.19-7,6.79-12.38,6.43a21.7,21.7,0,0,1-9.24-3.15,57,57,0,0,1-13-10.7C10.44,44.65,5.88,41,0,38.86Z"></path>
    </g>
  </g>
</svg>
