<?xml version="1.0" encoding="UTF-8"?>
<svg xmlns="http://www.w3.org/2000/svg" viewBox="0 0 418.59 288.22">
  <defs>
    <style>.cls-1{fill:#fff;}</style>
  </defs>
  <g id="Calque_2" data-name="Calque 2">
    <g id="Calque_1-2" data-name="Calque 1">
      <path class="cls-1" d="M144,0H255.42C269.93,0,279,9,279.05,23.58c.05,10.66,0,21.31,0,32,0,4.59.72,5.29,5.35,5.29,7.42,0,14.85-.08,22.28,0,14.64.22,26.51,6.11,35.44,17.75a24.39,24.39,0,0,1,2.24,3.84c6.3,12.57,12.84,25,18.77,37.79,4.28,9.16,11.36,14.35,20.72,17,5.38,1.51,10.8,2.92,16.21,4.32a20.61,20.61,0,0,1,15.23,14.11c2.41,7,3,14.37,3.14,21.68.24,15.9.11,31.8.07,47.7,0,14-10.5,24.5-24.56,24.58-7.95,0-15.9,0-23.86,0-2.31,0-3.61-.62-3.72-3.17-.3-6.75-1.23-13.38-4-19.65-8.39-19.07-22.87-30.6-43.51-33.06-18.51-2.21-34.37,4-46.75,18.33a52.15,52.15,0,0,0-13,33.74c-.08,3.06-.82,3.76-4.3,3.77q-18.75,0-37.49,0H153.11c-4.3,0-4.56-.27-4.72-4.58-.9-24.64-19.07-46.24-43.18-50.7-16.93-3.13-32.29.75-45.45,12.09a51.61,51.61,0,0,0-18.3,35.36c-.09.95-.31,1.9-.39,2.85-.38,4.21-1.08,5-5.28,5-4.89,0-9.84.26-14.64-.42C8.63,247.41.19,237.65.08,225c-.14-16.42-.06-32.85,0-49.28,0-5.09,2.36-7.72,7.43-8.44a45.27,45.27,0,0,1,6.26-.49c26,0,52.08-.22,78.12.08,10.88.13,21.17-9.53,20.9-21-.11-4.87.34-9.77-1.91-14.39-4-8.17-10.57-12.23-19.45-12.27-26.74-.12-53.48,0-80.22,0-1,0-1.93,0-2.89,0-6.15-.32-8.28-2.52-8.24-8.63a33.47,33.47,0,0,1,.45-6.5C1.14,101,3,99.7,6,99.62s6.12,0,9.18,0H128.39c14.53,0,23.21-8.64,23.12-23.17a38.88,38.88,0,0,0-.93-9.59c-2.53-9.58-11-15.32-22.12-15.33q-37.74,0-75.5,0-22.8,0-45.61,0c-4.87,0-7.09-1.76-7.18-6.62C0,36.93,0,29,.56,21.05c.61-8.5,6-13.88,13.41-17.33A43,43,0,0,1,32.33,0ZM315.61,137.89q15.47,0,30.93,0a18.46,18.46,0,0,0,2.88-.12c1.86-.29,2.68-1.09,1.46-3a59.84,59.84,0,0,1-3-5.49c-5.31-10.73-10.3-21.62-15.95-32.16s-14.82-17-26.67-18.68c-7-1-14.28-.63-21.43-.65-4,0-4.72.94-4.72,4.85q0,25.16,0,50.32c0,4.29.67,4.95,5.08,4.95Q299.89,137.91,315.61,137.89Z"></path>
      <path class="cls-1" d="M95.09,205.39a41.17,41.17,0,0,1,41.26,42.37c-.67,22.65-18.09,40.49-41.68,40.46-24.09,0-41.84-19-41.55-41.93A41.1,41.1,0,0,1,95.09,205.39Zm17.17,41.23a17.55,17.55,0,1,0-17.5,17.63A17.24,17.24,0,0,0,112.26,246.62Z"></path>
      <path class="cls-1" d="M271.11,246.69c0-23.08,18.61-41.3,41.84-41.35a41.44,41.44,0,0,1-.1,82.88C287.82,288.2,271.19,268.56,271.11,246.69Zm41.55,17.56a17.54,17.54,0,1,0-17.51-17.65A17.44,17.44,0,0,0,312.66,264.25Z"></path>
    </g>
  </g>
</svg>
