<?xml version="1.0" encoding="UTF-8"?>
<svg xmlns="http://www.w3.org/2000/svg" viewBox="0 0 221.66 229.76">
  <defs>
    <style>.cls-1{fill:#fff;}</style>
  </defs>
  <g id="Calque_2" data-name="Calque 2">
    <g id="Calque_1-2" data-name="Calque 1">
      <path class="cls-1" d="M218,53.42a40.63,40.63,0,0,0-7.37-1.87A23.87,23.87,0,0,1,194.3,42c-1.16-1.53-2.81-3.18-4.56-3.68-5.2-1.52-16.56-6.93-25.44-10.62h0l-2-.82c-5.69-2.93-13.58-11.64-17.67-16.09A32.21,32.21,0,0,0,124.16.36c-8.41-1-9.39-.24-10.21,8.34-.16,1.66-.49,3.3-.75,4.94C111.86,21.85,107.62,26,99.44,27c-7.49.94-37.12-3.35-44.5,1.16h0c-1.86.73-3.59,5.52-3.37,7.28.26,2.26,1.41,4.42,2.26,6.6,1.55,4,2,7.76-1.18,11.18s-7,3.37-11.08,2c-3.48-1.16-7.2-1.74-10.48-3.27-8.36-3.91-16.62-2.29-24.91-.2-5.73,1.45-7.8,6.06-4.8,11.06a14.47,14.47,0,0,0,5.77,5.12c5.55,2.73,11.34,4.92,17,7.38,6.34,2.75,11.76,7,14.34,13.3,3.35,8.23,8.54,14.94,14.2,21.54,5.21,6.07,6,13,3.61,20.61A66.06,66.06,0,0,0,53,146.27c-.91,14.58-2.9,28.73-9.52,42.18-3.34,6.65-.48,13.44,6.44,17.34,4.78,2.7,5.33,2.67,10.24,5.21,5.41,2.79,12.95.19,18.89,1.55.2-.24,11.45,4,17.06,7.58,6.43,6.23,13.83,10.55,24,9.46,4.32-.46,6.6-1.67,6.32-6.24-.32-5.28,1.13-10.22,5.13-13.58,7.3-6.14,15.06-11.79,25.59-10.14,1.11,0,13.92,4.46,15,4.24l-.05,0c14.16,3.1,29.93,3.16,37.87-9.37,3.2-5,3-7.69-1.8-11.45-1.19-.93-2.45-1.73-3.58-2.73-7.21-6.28-7.77-21.1-1.44-27.88,1.17-1.27,1.28-4.05,1-6a75.85,75.85,0,0,0-2.8-11.78c-.54-1.69-1.72-3.93-3.15-4.44-7.57-2.72-9.93-7.25-6.81-14.67,2.64-6.3,5.52-12.5,8.3-18.74,2.07-4.65,5.65-7.58,10.65-8,5.35-.45,6.72-3.43,7.28-8.25a206.24,206.24,0,0,1,3.77-20.41C222.15,56.73,221.24,54.5,218,53.42Z"></path>
    </g>
  </g>
</svg>
